<svg xmlns="http://www.w3.org/2000/svg" viewBox="0 0 512 512" role="img" aria-labelledby="title desc">
  <title id="title">Deutschgram</title>
  <desc id="desc">Deutschgram icon</desc>
  <defs>
    <linearGradient id="bg" x1="0" y1="0" x2="1" y2="1">
      <stop offset="0%" stop-color="#172d3d" />
      <stop offset="100%" stop-color="#0a141d" />
    </linearGradient>
    <linearGradient id="accent" x1="0" y1="0" x2="1" y2="1">
      <stop offset="0%" stop-color="#ffd0af" />
      <stop offset="100%" stop-color="#f0794a" />
    </linearGradient>
  </defs>
  <rect width="512" height="512" rx="112" fill="url(#bg)" />
  <circle cx="392" cy="118" r="72" fill="#49b68c" opacity="0.14" />
  <path d="M132 164c0-22 18-40 40-40h168c22 0 40 18 40 40v116c0 22-18 40-40 40H232l-76 68c-9 8-24 2-24-10V320c-19-4-32-21-32-40V164z" fill="#102536" stroke="#2b465b" stroke-width="14" />
  <path d="M192 205h128M192 253h92" stroke="url(#accent)" stroke-width="26" stroke-linecap="round" />
  <text x="256" y="432" font-family="Trebuchet MS, Segoe UI, sans-serif" font-size="56" text-anchor="middle" fill="#f3ecdf">DG</text>
</svg>